<svg xmlns="http://www.w3.org/2000/svg" width="512" height="512" viewBox="0 0 100 100">
  <rect width="100" height="100" fill="#B0563A"/>
  <g transform="translate(16.7,13) scale(0.82)" fill="none">
    <rect x="9" y="15" width="56" height="50" rx="11" stroke="#F6ECDD" stroke-width="6"/>
    <line x1="9" y1="29" x2="65" y2="29" stroke="#F6ECDD" stroke-width="6"/>
    <line x1="25" y1="9" x2="25" y2="21" stroke="#F6ECDD" stroke-width="6" stroke-linecap="round"/>
    <line x1="49" y1="9" x2="49" y2="21" stroke="#F6ECDD" stroke-width="6" stroke-linecap="round"/>
    <path d="M37 51 C37 44 39.5 40.5 45 38.5" stroke="#F0C9B6" stroke-width="2.2" stroke-linecap="round"/>
    <ellipse cx="48.6" cy="34.4" rx="5.4" ry="2.7" fill="#F0C9B6" transform="rotate(-42 48.6 34.4)"/>
    <ellipse cx="42" cy="35.4" rx="5" ry="2.5" fill="#E7B49B" transform="rotate(18 42 35.4)"/>
    <ellipse cx="36.5" cy="51.5" rx="5" ry="6.6" fill="#E7B49B" transform="rotate(-34 36.5 51.5)"/>
    <ellipse cx="33.7" cy="49.4" rx="1.3" ry="1.8" fill="#F7E1D2" transform="rotate(-40 33.7 49.4)"/>
  </g>
  <text x="50" y="86" font-family="Helvetica, Arial, sans-serif" font-size="15" font-weight="700" fill="#FBEFE6" text-anchor="middle" letter-spacing="3">TEST</text>
</svg>
